<?xml version="1.0" encoding="utf-8"?>
<!-- Generator: Adobe Illustrator 19.2.1, SVG Export Plug-In . SVG Version: 6.00 Build 0)  -->
<svg version="1.1" id="layer" xmlns="http://www.w3.org/2000/svg" xmlns:xlink="http://www.w3.org/1999/xlink" x="0px" y="0px"
     viewBox="0 0 652 652" style="enable-background:new 0 0 652 652;" xml:space="preserve">
<style type="text/css">
	.st0{fill:#67B3EF;}
	.st1{fill:#A8D4F6;}
	.st2{fill:#2693E9;}
	.st3{fill:#002951;}
</style>
    <path class="st0" d="M57.9,316.6h55.6c6.9,0,13.1,5.6,13.1,13.1v1.9c0,6.9-5.6,13.1-13.1,13.1H57.9c-6.9,0-13.1-5.6-13.1-13.1v-1.9
	C44.8,322.8,50.4,316.6,57.9,316.6z"/>
    <path class="st1" d="M39.1,360.9h55.6c6.9,0,13.1,5.6,13.1,13.1v1.9c0,6.9-5.6,13.1-13.1,13.1H39.1c-6.9,0-13.1-5.6-13.1-13.1v-1.9
	C26,366.6,31.6,360.9,39.1,360.9z"/>
    <path class="st2" d="M76.6,272.2h55.6c6.9,0,13.1,5.6,13.1,13.1v1.9c-0.6,6.9-6.3,12.5-13.8,12.5h-55c-7.5,0-13.1-5.6-13.1-12.5
	v-1.9C63.5,277.8,69.1,272.2,76.6,272.2z"/>
    <path class="st3" d="M160.4,362.2l-11.3,26.3h-20l49.4-116.3h20l49.4,116.3h-20l-11.3-26.3H160.4z M209.1,344.1l-20.6-48.1
	l-20.6,47.5h41.3L209.1,344.1z M314.7,347.8v-47.5h18.1v88.1h-18.1v-16.3c-3.1,5.6-6.9,9.4-11.9,12.5c-5,3.1-10.6,4.4-16.2,4.4
	c-9.4,0-17.5-3.1-23.1-9.4c-5.6-6.3-8.8-15-8.8-26.3v-53.1h18.1v48.8c0,16.3,6.3,24.4,19.4,24.4c6.3,0,11.9-1.9,16.3-6.3
	S314.7,355.9,314.7,347.8z M376,315.3v45c0,4.4,1.3,7.5,3.1,10s5,3.8,8.8,3.8c3.8,0,7.5-1.9,11.3-5.6l7.5,13.1
	c-6.3,5.6-13.1,8.8-20.6,8.8s-14.4-2.5-19.4-8.1s-8.1-13.1-8.1-21.9v-45h-10.6v-15h10.6v-28.1H376v27.5h22.5v15H376V315.3z
	 M454.7,373.4c7.5,0,14.4-2.5,19.4-8.1s7.5-12.5,7.5-20.6s-2.5-15.6-7.5-20.6s-11.3-8.1-19.4-8.1c-7.5,0-14.4,2.5-19.4,8.1
	s-7.5,12.5-7.5,20.6s2.5,15.6,7.5,20.6C441,370.3,447.2,373.4,454.7,373.4z M454.7,389.7c-13.1,0-23.8-4.4-31.9-13.1
	s-13.1-19.4-13.1-32.5s4.4-23.8,13.1-32.5s19.4-13.1,31.9-13.1s23.8,4.4,31.9,13.1c8.8,8.8,13.1,19.4,13.1,32.5s-4.4,23.8-13.1,32.5
	C477.9,385.3,467.9,389.7,454.7,389.7z"/>
    <path class="st2" d="M602.9,274.1c0-3.1,1.2-6.3,3.1-8.1c1.9-1.9,5-3.8,8.1-3.8s5.6,1.3,8.1,3.8s3.8,5,3.8,8.1s-1.3,6.3-3.1,8.1
	s-5,3.8-8.1,3.8s-5.6-1.3-8.1-3.8C604.1,280.3,602.9,277.2,602.9,274.1z M623.5,388.4h-18.1v-88.1h18.1V388.4z M534.8,290.9v31.9
	h49.4v18.1h-49.4v47.5H516V272.2h75v18.1L534.8,290.9z"/>
</svg>
